# xmcd CD database file
#
# Track frame offsets:
#	150
#	12364
#	23100
#	37873
#	49295
#	55964
#	72063
#	86567
#	102919
#	114160
#	136315
#	149701
#	163155
#	176022
#
# Disc length: 2459 seconds
#
# Revision: 1
# Processed by: cddbd v1.5.2PL0 Copyright (c) Steve Scherf et al.
# Submitted via: jetAudio 7
#
DISCID=bd09990e
DTITLE=Chet Atkins - Solo Sessions CD 2 of 2
DYEAR=2003
DGENRE=Country
TTITLE0=Mr Bojangles
TTITLE1=Polkadots And Moonbeams
TTITLE2=As Time Goes By
TTITLE3=Walk Don't Run
TTITLE4=Mystery Train
TTITLE5=But Not For Me
TTITLE6=Magnetic rag
TTITLE7=To Be Or Not To Be
TTITLE8=Dear Ol' Dad
TTITLE9=Cowboy Medley
TTITLE10=Yesterdays
TTITLE11=Embraceable You
TTITLE12=Bicycle Built For Two
TTITLE13=Amazing Grace
EXTD=
EXTT0=
EXTT1=
EXTT2=
EXTT3=
EXTT4=
EXTT5=
EXTT6=
EXTT7=
EXTT8=
EXTT9=
EXTT10=
EXTT11=
EXTT12=
EXTT13=
PLAYORDER=
